<svg width="113" height="113" viewBox="0 0 113 113" fill="none" xmlns="http://www.w3.org/2000/svg">
<g filter="url(#filter0_d_58_16)">
<path d="M61.7084 10.8334V24.7396L56.5 29.948L51.2917 24.7396V10.8334H61.7084ZM98.1667 47.2917V57.7084H84.2605L79.0521 52.5001L84.2605 47.2917H98.1667ZM28.7396 47.2917L33.9479 52.5001L28.7396 57.7084H14.8334V47.2917H28.7396ZM56.5 75.0522L61.7084 80.2605V94.1668H51.2917V80.2605L56.5 75.0522ZM72.125 0.416687H40.875V29.0625L56.5 44.6876L72.125 29.0625V0.416687ZM108.583 36.8751H79.9375L64.3125 52.5001L79.9375 68.1251H108.583V36.8751ZM33.0625 36.8751H4.41669V68.1251H33.0625L48.6875 52.5001L33.0625 36.8751ZM56.5 60.3126L40.875 75.9376V104.583H72.125V75.9376L56.5 60.3126Z" fill="black"/>
<path d="M62.7084 10.8334V9.83336H61.7084H51.2917H50.2917V10.8334V24.7396V25.1538L50.5846 25.4467L55.7929 30.6551L56.5 31.3622L57.2071 30.6551L62.4155 25.4467L62.7084 25.1538V24.7396V10.8334ZM99.1667 47.2917V46.2917H98.1667H84.2605H83.8462L83.5533 46.5846L78.345 51.793L77.6379 52.5001L78.345 53.2072L83.5533 58.4155L83.8462 58.7084H84.2605H98.1667H99.1667V57.7084V47.2917ZM29.4467 46.5846L29.1538 46.2917H28.7396H14.8334H13.8334V47.2917V57.7084V58.7084H14.8334H28.7396H29.1538L29.4467 58.4155L34.6551 53.2072L35.3622 52.5001L34.6551 51.793L29.4467 46.5846ZM57.2071 74.3451L56.5 73.638L55.7929 74.3451L50.5846 79.5534L50.2917 79.8463V80.2605V94.1668V95.1668H51.2917H61.7084H62.7084V94.1668V80.2605V79.8463L62.4155 79.5534L57.2071 74.3451ZM56.5 43.2733L41.875 28.6483V1.41669H71.125V28.6483L56.5 43.2733ZM65.7267 52.5001L80.3518 37.8751H107.583V67.1251H80.3518L65.7267 52.5001ZM32.6483 37.8751L47.2733 52.5001L32.6483 67.1251H5.41669V37.8751H32.6483ZM41.875 76.3518L56.5 61.7268L71.125 76.3518V103.583H41.875V76.3518Z" stroke="#0FFFCB" stroke-width="2"/>
</g>
<defs>
<filter id="filter0_d_58_16" x="0.416687" y="0.416687" width="112.167" height="112.167" filterUnits="userSpaceOnUse" color-interpolation-filters="sRGB">
<feFlood flood-opacity="0" result="BackgroundImageFix"/>
<feColorMatrix in="SourceAlpha" type="matrix" values="0 0 0 0 0 0 0 0 0 0 0 0 0 0 0 0 0 0 127 0" result="hardAlpha"/>
<feOffset dy="4"/>
<feGaussianBlur stdDeviation="2"/>
<feComposite in2="hardAlpha" operator="out"/>
<feColorMatrix type="matrix" values="0 0 0 0 0 0 0 0 0 0 0 0 0 0 0 0 0 0 0.25 0"/>
<feBlend mode="normal" in2="BackgroundImageFix" result="effect1_dropShadow_58_16"/>
<feBlend mode="normal" in="SourceGraphic" in2="effect1_dropShadow_58_16" result="shape"/>
</filter>
</defs>
</svg>
