<svg width="149" height="118" viewBox="0 0 149 118" fill="none" xmlns="http://www.w3.org/2000/svg">
<g filter="url(#filter0_d_58_5)">
<path d="M143.363 87.1696L143.363 87.1702C144.898 98.7138 136.599 108.833 125.906 108.833C121.313 108.833 116.834 106.844 113.513 103.277L97.107 85.652L96.8104 85.3333H96.375H52.625H52.191L51.8946 85.6504L35.4154 103.275L35.4139 103.277C32.0915 106.846 27.6851 108.833 23.0209 108.833C12.4037 108.833 4.10172 98.7165 5.63714 87.1702L5.63721 87.1696L13.5851 27.1663L13.5851 27.1662C15.568 12.1792 27.5112 1.16666 41.4688 1.16666H107.531C121.489 1.16666 133.432 12.1792 135.415 27.1662L143.363 87.1696ZM129.812 93.3158L129.833 93.2909L129.852 93.2648C130.447 92.4419 131.174 91.0886 130.908 89.1748C130.907 89.1738 130.907 89.1727 130.907 89.1717L122.96 29.1754L122.96 29.1748C121.881 21.0583 115.307 14.8333 107.531 14.8333H41.4688C33.6949 14.8333 27.1246 21.0549 25.9686 29.0858L25.9685 29.0858L25.967 29.097L18.0192 89.0999C18.0192 89.1 18.0191 89.1002 18.0191 89.1004C17.7556 91.0833 18.4716 92.4501 19.1879 93.3158C19.8846 94.1578 21.0893 95.1667 23.0209 95.1667C24.405 95.1667 25.6871 94.5717 26.5966 93.5947L47.0083 71.6667H101.992L122.403 93.5947C123.313 94.5717 124.595 95.1667 125.979 95.1667C127.911 95.1667 129.115 94.1578 129.812 93.3158Z" fill="black" stroke="#0FFFCB" stroke-width="2"/>
<path d="M45.3333 40.3333H46.3333V39.3333V24.6667H51.625V39.3333V40.3333H52.625H66.2083V46.1667H52.625H51.625V47.1667V61.8333H46.3333V47.1667V46.1667H45.3333H31.75V40.3333H45.3333Z" fill="black" stroke="#0FFFCB" stroke-width="2"/>
<path d="M117.25 55C117.25 58.8426 114.367 61.8333 110.958 61.8333C107.55 61.8333 104.667 58.8426 104.667 55C104.667 51.1573 107.55 48.1667 110.958 48.1667C114.367 48.1667 117.25 51.1573 117.25 55Z" fill="black" stroke="#0FFFCB" stroke-width="2"/>
<path d="M102.667 31.5C102.667 35.3426 99.7836 38.3333 96.375 38.3333C92.9665 38.3333 90.0834 35.3426 90.0834 31.5C90.0834 27.6573 92.9665 24.6667 96.375 24.6667C99.7836 24.6667 102.667 27.6573 102.667 31.5Z" fill="black" stroke="#0FFFCB" stroke-width="2"/>
</g>
<defs>
<filter id="filter0_d_58_5" x="0.454346" y="0.166656" width="148.091" height="117.667" filterUnits="userSpaceOnUse" color-interpolation-filters="sRGB">
<feFlood flood-opacity="0" result="BackgroundImageFix"/>
<feColorMatrix in="SourceAlpha" type="matrix" values="0 0 0 0 0 0 0 0 0 0 0 0 0 0 0 0 0 0 127 0" result="hardAlpha"/>
<feOffset dy="4"/>
<feGaussianBlur stdDeviation="2"/>
<feComposite in2="hardAlpha" operator="out"/>
<feColorMatrix type="matrix" values="0 0 0 0 0 0 0 0 0 0 0 0 0 0 0 0 0 0 0.25 0"/>
<feBlend mode="normal" in2="BackgroundImageFix" result="effect1_dropShadow_58_5"/>
<feBlend mode="normal" in="SourceGraphic" in2="effect1_dropShadow_58_5" result="shape"/>
</filter>
</defs>
</svg>
